<svg xmlns="http://www.w3.org/2000/svg" data-name="Layer 1" viewBox="0 0 100 125" x="0px" y="0px">
    <rect x="14.62" y="56.88" width="7.75" height="6"/>
    <rect x="24.62" y="56.88" width="7.75" height="6"/>
    <rect x="34.62" y="56.88" width="7.75" height="6"/>
    <rect x="14.62" y="66.88" width="7.75" height="6"/>
    <rect x="24.62" y="66.88" width="7.75" height="6"/>
    <rect x="34.62" y="66.88" width="7.75" height="6"/>
    <rect x="14.62" y="76.88" width="7.75" height="6"/>
    <rect x="24.62" y="76.88" width="7.75" height="6"/>
    <rect x="34.62" y="76.88" width="7.75" height="6"/>
    <rect x="14.62" y="46.88" width="27.75" height="6"/>
    <path d="M93.87,75.88V11.13a3,3,0,0,0-3-3H34.12a3,3,0,0,0-3,3v27h-22a3,3,0,0,0-3,3V88.88a3,3,0,0,0,3,3H47.87a3,3,0,0,0,3-3v-10h40A3,3,0,0,0,93.87,75.88Zm-49,10H12.12V44.13H44.87Zm43-13h-37V41.13a3,3,0,0,0-3-3H37.12v-24H87.87Z"/>
    <rect x="40.62" y="20.88" width="7.75" height="6"/>
    <rect x="53.62" y="20.88" width="27.75" height="6"/>
    <rect x="40.62" y="30.88" width="7.75" height="6"/>
    <rect x="53.62" y="30.88" width="27.75" height="6"/>
    <rect x="53.62" y="40.88" width="27.75" height="6"/>
    <rect x="53.62" y="50.88" width="27.75" height="6"/>
    <rect x="53.62" y="60.88" width="27.75" height="6"/>
</svg>