<svg version="1.0" 
    xmlns="http://www.w3.org/2000/svg" viewBox="0 0 1280 640" preserveAspectRatio="xMidYMid meet">
    <g transform="translate(0.000000,640.000000) scale(0.100000,-0.100000)" fill="#fff" stroke="none">
        <path d="M4740 5724 c-25 -2 -103 -8 -175 -14 -1487 -119 -2892 -721 -4000
-1713 -151 -134 -350 -335 -432 -434 -116 -141 -157 -304 -118 -472 32 -135
106 -234 364 -491 707 -702 1633 -1266 2613 -1591 552 -183 1117 -291 1726
-330 237 -15 720 -7 902 15 1205 147 2528 707 4093 1733 109 71 194 120 200
116 61 -37 464 -345 742 -567 443 -354 766 -633 1148 -989 143 -133 262 -243
267 -245 4 -2 153 151 331 340 177 189 340 361 361 383 l38 41 -258 241 c-293
274 -457 420 -727 649 -281 237 -688 564 -895 719 -36 26 -75 57 -87 68 l-22
19 157 121 c580 444 1066 856 1579 1335 l253 236 -34 36 c-18 19 -178 189
-355 377 -177 188 -326 345 -331 348 -11 7 -33 -12 -288 -251 -449 -424 -1051
-926 -1627 -1360 -132 -99 -245 -183 -252 -187 -6 -4 -105 55 -230 136 -1394
917 -2690 1490 -3778 1671 -301 50 -402 58 -770 61 -192 1 -370 1 -395 -1z
m820 -1078 c969 -137 2035 -586 3338 -1406 28 -18 52 -36 52 -40 0 -8 -53 -41
-335 -213 -1060 -646 -2042 -1058 -2866 -1202 -230 -40 -404 -55 -649 -55
-1182 0 -2325 367 -3300 1058 -138 99 -386 294 -475 376 l-50 46 45 41 c82 74
323 264 445 351 561 400 1219 709 1870 879 319 83 676 145 970 168 77 6 156
13 175 15 97 11 672 -3 780 -18z"/>
    </g>
</svg>