<svg xmlns="http://www.w3.org/2000/svg" version="1.1" x="0px" y="0px" viewBox="0 0 100 125">
    <g>
        <path d="M89.6699,16.0552h-80.29c-0.0688,0-0.125,0.0562-0.125,0.125V87.54c0,0.0688,0.0562,0.125,0.125,0.125h80.29     c0.0688,0,0.125-0.0562,0.125-0.125V16.1802C89.7949,16.1113,89.7388,16.0552,89.6699,16.0552z M9.5049,85.5h80.04v0.5103h-80.04     V85.5z M89.5449,69.885h-80.04v-0.4202h80.04V69.885z M9.5049,52.1152v-0.5h80.04v0.5H9.5049z M9.5049,34.2749v-0.5h80.04v0.5     H9.5049z M28.9648,17.8052v14.25H10.9951v-14.25H28.9648z M48.665,17.8052v14.25H30.6948v-14.25H48.665z M68.355,17.8052v14.25     H50.3848v-14.25H68.355z M88.0449,17.8052v14.25H70.105v-14.25H88.0449z"/>
        <path d="M93.3901,12.21h-87.71c-0.1382,0-0.25,0.1118-0.25,0.25V87.54c0,0.1382,0.1118,0.25,0.25,0.25h2.9697     c0.1382,0,0.25-0.1118,0.25-0.25V15.71h81.27V87.54c0,0.1382,0.1118,0.25,0.25,0.25h2.9702c0.1382,0,0.25-0.1118,0.25-0.25V12.46     C93.6401,12.3218,93.5283,12.21,93.3901,12.21z"/>
        <path d="M11.6201,31.48h16.7197c0.0278,0,0.0498-0.022,0.0498-0.0498v-13c0-0.0278-0.022-0.0498-0.0498-0.0498H11.6201     c-0.0278,0-0.0498,0.022-0.0498,0.0498v13C11.5703,31.458,11.5923,31.48,11.6201,31.48z M11.6699,31.3804V18.48H28.29v12.9004     H11.6699z"/>
        <path d="M31.3198,31.48H48.04c0.0278,0,0.0498-0.022,0.0498-0.0498v-13c0-0.0278-0.022-0.0498-0.0498-0.0498H31.3198     c-0.0278,0-0.0498,0.022-0.0498,0.0498v13C31.27,31.458,31.292,31.48,31.3198,31.48z M47.9902,18.48v12.9004H31.3696V18.48     H47.9902z"/>
        <path d="M51.0098,31.48H67.73c0.0278,0,0.0498-0.022,0.0498-0.0498v-13c0-0.0278-0.022-0.0498-0.0498-0.0498H51.0098     c-0.0278,0-0.0498,0.022-0.0498,0.0498v13C50.96,31.458,50.9819,31.48,51.0098,31.48z M67.6802,18.48v12.9004H51.0596V18.48     H67.6802z"/>
        <path d="M70.7202,31.48h16.73c0.0278,0,0.0498-0.022,0.0498-0.0498v-13c0-0.0278-0.022-0.0498-0.0498-0.0498h-16.73     c-0.0278,0-0.0498,0.022-0.0498,0.0498v13C70.6704,31.458,70.6924,31.48,70.7202,31.48z M87.4004,18.48v12.9004H70.77V18.48     H87.4004z"/>
    </g>
</svg>