<svg xmlns="http://www.w3.org/2000/svg" viewBox="0 0 100 125">
    <g >
        <path className="serviceIcon" d="M92.93,90.813h-8.684V26.637c0-0.001,0-0.002,0-0.002c0-0.001,0-0.002,0-0.002v-9.626    c0-0.001,0-0.002,0-0.002c0-0.001,0-0.001,0-0.002V7.375c0-0.001,0-0.001,0-0.002c0-1.001-0.811-1.812-1.812-1.812l0,0H17.091    c-1.001,0-1.812,0.811-1.812,1.812v77.694l-5.961,5.747H7.069c-1.001,0-1.812,0.811-1.812,1.812c0,1.001,0.811,1.812,1.812,1.812    h85.862c1.001,0,1.812-0.811,1.812-1.812C94.742,91.625,93.931,90.813,92.93,90.813z M33.635,90.813H14.541l18.226-17.573    c0.468-0.452,0.659-1.122,0.498-1.752c-0.004-0.015-0.39-1.548-0.536-3.237c-0.195-2.252,0.185-3.133,0.333-3.263    c1.539-1.357,6.606-4.296,8.429-5.315c0.051-0.028,0.1-0.059,0.148-0.092c0.745-0.516,2.762-1.469,3.33-0.767    c0.468,0.579,0.413,0.915,0.392,1.042c-0.109,0.668-0.925,1.393-1.338,1.667l-6.177,3.381c-0.643,0.352-0.987,1.037-0.937,1.723    c-0.003,0.043-0.005,0.086-0.005,0.129v8.95c0,1.001,0.811,1.812,1.812,1.812h15.355c-1.493,1.537-3.405,3.398-5.271,4.912    c-2.637,2.141-4.233,1.107-4.485,0.916c-0.682-0.659-1.693-0.619-2.401,0.016l-8.061,7.221    C33.771,90.655,33.699,90.733,33.635,90.813z M49.763,68.897c2.98,0,5.404-2.424,5.404-5.404c0-2.98-2.424-5.404-5.404-5.404    c-0.353,0-0.699,0.035-1.034,0.1c-0.186-0.525-0.484-1.083-0.944-1.652c-0.725-0.896-2.409-2.249-5.546-1.237    c-0.66,0.213-1.253,0.49-1.713,0.734v-2.866h18.473v20.726H40.526v-6.326l4.143-2.267C45.415,67.394,47.416,68.897,49.763,68.897z     M47.983,63.493c0-0.982,0.798-1.78,1.78-1.78s1.78,0.798,1.78,1.78c0,0.982-0.798,1.78-1.78,1.78S47.983,64.475,47.983,63.493z     M80.622,90.813H39.025l4.339-3.886c0.38,0.155,0.829,0.293,1.343,0.377c0.351,0.058,0.696,0.084,1.034,0.084    c2.197,0,4.083-1.124,5.342-2.146c3.326-2.699,6.665-6.294,7.957-7.726h1.772c1.001,0,1.812-0.811,1.812-1.812v-24.35    c0-1.001-0.811-1.812-1.812-1.812h-7.971c-0.629-1.042-1.772-1.739-3.078-1.739c-1.305,0-2.449,0.697-3.078,1.739h-7.971    c-1.001,0-1.812,0.811-1.812,1.812v6.439c0,0.11,0.01,0.218,0.029,0.322c-2.168,1.279-4.985,3.023-6.268,4.154    c-1.312,1.159-1.817,3.232-1.541,6.341c0.093,1.049,0.259,2.027,0.398,2.724L18.904,81.573V28.447h61.719L80.622,90.813    L80.622,90.813z M80.622,24.823H18.904v-6.007h61.719L80.622,24.823L80.622,24.823z M80.622,15.192H18.904V9.186h61.719    L80.622,15.192L80.622,15.192z"/>
        <path className="serviceIcon" d="M40.568,41.215c0.355,0,0.685-0.106,0.966-0.28l0.002,0.002l-0.008,0.007c0,0,0.012-0.01,0.018-0.015    c0.118-0.074,0.229-0.158,0.325-0.256c0.361-0.268,1.001-0.7,1.881-1.127c1.872-0.907,3.894-1.367,6.011-1.367    s4.139,0.46,6.011,1.367c0.862,0.418,1.491,0.839,1.856,1.109c0.109,0.112,0.234,0.207,0.367,0.288l0,0l0,0    c0.278,0.169,0.601,0.271,0.95,0.271c1.015,0,1.837-0.822,1.837-1.837c0-0.414-0.143-0.792-0.374-1.1c0,0-0.043-0.076-0.108-0.131    c-0.135-0.149-0.294-0.272-0.471-0.37c-1.345-1.003-4.903-3.222-10.068-3.222c-5.13,0-8.674,2.189-10.04,3.201    c-0.203,0.106-0.382,0.247-0.532,0.418c-0.049,0.042-0.083,0.072-0.095,0.083l0.014,0.015c-0.235,0.308-0.378,0.689-0.378,1.106    C38.732,40.392,39.554,41.215,40.568,41.215z"/>
        <path className="serviceIcon" d="M57.303,43.22c-0.972-0.734-3.652-2.445-7.541-2.445c-4.845,0-7.82,2.659-7.945,2.771    c-0.739,0.674-0.793,1.819-0.12,2.56c0.357,0.392,0.848,0.592,1.34,0.592c0.435,0,0.872-0.156,1.219-0.472    c0.02-0.018,2.102-1.827,5.505-1.827c3.391,0,5.43,1.762,5.516,1.837l-0.011-0.01l0.003-0.004    c0.325,0.292,0.751,0.476,1.223,0.476c1.015,0,1.837-0.822,1.837-1.837C58.331,44.14,57.91,43.521,57.303,43.22z"/>
    </g>
</svg>