<svg xmlns="http://www.w3.org/2000/svg" version="1.1" x="0px" y="0px" viewBox="0 0 100 125">
    <g>
        <path d="M91.7,87.4c-3.2,3.2-8.5,3.3-11.7,0L53.7,61l4.2-4.2l25.6,25.6c0.9,0.9,2.5,0.9,3.4,0s0.9-2.5,0-3.4L61.3,53.5l4.2-4.2   l26.3,26.3C95,78.9,95,84.1,91.7,87.4z M26.2,25.3c-2.3,2.3-6.1,2.3-8.4,0l-7.1-7.1c-0.6-0.6-1.6-0.3-1.8,0.5   C7.7,24.8,9.4,31.3,14.1,36c4.1,4.1,9.6,5.9,14.9,5.5c3.1-0.2,6,0.9,8.2,3.1l3.9,3.9l4.2-4.2l-5.3-5.3c-0.9-0.9-0.9-2.5,0-3.4   s2.5-0.9,3.4,0l5.3,5.3l4.2-4.2l-3.3-3.3c-2.3-2.3-3.5-5.6-3.1-8.8c0.7-5.6-1.1-11.4-5.4-15.7c-5-5-12.1-6.6-18.5-4.9   c-0.8,0.2-1,1.2-0.5,1.8l7.5,7.5c2.3,2.3,2.3,6.1,0,8.4L26.2,25.3z M9.9,73l11.6-11.6c0.4-0.4,1-0.6,1.6-0.6   c1.7,0.1,3.5-0.4,4.8-1.8c1.3-1.3,1.9-3.1,1.8-4.8c0-0.6,0.2-1.2,0.6-1.6l2.5-2.5c0.7-0.7,1.8-0.7,2.4,0l16.9,16.9   c0.7,0.7,0.7,1.8,0,2.4l-2.5,2.5c-0.4,0.4-1,0.6-1.6,0.6c-1.7-0.1-3.5,0.4-4.8,1.8c-1.3,1.3-1.9,3.1-1.8,4.8c0,0.6-0.2,1.2-0.6,1.6   L28.9,92.6c-5.4,5.4-14.2,5.3-19.5-0.2C4.2,87,4.6,78.3,9.9,73z M20,85.5c-0.9,0.9-0.9,2.3,0,3.2c0.9,0.9,2.3,0.9,3.2,0l11-11   c0.9-0.9,0.9-2.3,0-3.2c-0.9-0.9-2.3-0.9-3.2,0L20,85.5z M13.5,82.2c0.9,0.9,2.3,0.9,3.2,0l11-11c0.9-0.9,0.9-2.3,0-3.2   c-0.9-0.9-2.3-0.9-3.2,0l-11,11C12.6,79.9,12.6,81.3,13.5,82.2z M93.8,11.2l-2.9-2.9c-0.5-0.5-1.2-0.6-1.8-0.3l-16,8   c-0.5,0.3-0.8,0.8-0.8,1.4v6.8L45.8,50.6c-0.8,0.8-0.8,2,0,2.8l2.8,2.8c0.8,0.8,2,0.8,2.8,0l26.4-26.4h6.8c0.6,0,1.1-0.3,1.4-0.8   l8-16C94.4,12.4,94.3,11.7,93.8,11.2z"/>
    </g>
</svg>